<svg width="87" height="23" viewBox="0 0 87 23" fill="none" xmlns="http://www.w3.org/2000/svg">
<path d="M13.61 22L9.08 14.95L4.97 22H0.23L6.83 11.44L0.14 1.06H4.97L9.5 8.08L13.58 1.06H18.32L11.75 11.59L18.44 22H13.61ZM31.3564 22.21C29.3964 22.21 27.5964 21.75 25.9564 20.83C24.3164 19.91 23.0164 18.64 22.0564 17.02C21.0964 15.38 20.6164 13.53 20.6164 11.47C20.6164 9.43 21.0964 7.6 22.0564 5.98C23.0164 4.34 24.3164 3.06 25.9564 2.14C27.5964 1.22 29.3964 0.76 31.3564 0.76C33.3364 0.76 35.1364 1.22 36.7564 2.14C38.3964 3.06 39.6864 4.34 40.6264 5.98C41.5864 7.6 42.0664 9.43 42.0664 11.47C42.0664 13.53 41.5864 15.38 40.6264 17.02C39.6864 18.64 38.3964 19.91 36.7564 20.83C35.1164 21.75 33.3164 22.21 31.3564 22.21ZM31.3564 18.46C32.6164 18.46 33.7264 18.18 34.6864 17.62C35.6464 17.04 36.3964 16.22 36.9364 15.16C37.4764 14.1 37.7464 12.87 37.7464 11.47C37.7464 10.07 37.4764 8.85 36.9364 7.81C36.3964 6.75 35.6464 5.94 34.6864 5.38C33.7264 4.82 32.6164 4.54 31.3564 4.54C30.0964 4.54 28.9764 4.82 27.9964 5.38C27.0364 5.94 26.2864 6.75 25.7464 7.81C25.2064 8.85 24.9364 10.07 24.9364 11.47C24.9364 12.87 25.2064 14.1 25.7464 15.16C26.2864 16.22 27.0364 17.04 27.9964 17.62C28.9764 18.18 30.0964 18.46 31.3564 18.46Z" fill="#00DC7F"/>
<path d="M57.7311 22L53.2011 14.95L49.0911 22H44.3511L50.9511 11.44L44.2611 1.06H49.0911L53.6211 8.08L57.7011 1.06H62.4411L55.8711 11.59L62.5611 22H57.7311ZM75.4775 22.21C73.5175 22.21 71.7175 21.75 70.0775 20.83C68.4375 19.91 67.1375 18.64 66.1775 17.02C65.2175 15.38 64.7375 13.53 64.7375 11.47C64.7375 9.43 65.2175 7.6 66.1775 5.98C67.1375 4.34 68.4375 3.06 70.0775 2.14C71.7175 1.22 73.5175 0.76 75.4775 0.76C77.4575 0.76 79.2575 1.22 80.8775 2.14C82.5175 3.06 83.8075 4.34 84.7475 5.98C85.7075 7.6 86.1875 9.43 86.1875 11.47C86.1875 13.53 85.7075 15.38 84.7475 17.02C83.8075 18.64 82.5175 19.91 80.8775 20.83C79.2375 21.75 77.4375 22.21 75.4775 22.21ZM75.4775 18.46C76.7375 18.46 77.8475 18.18 78.8075 17.62C79.7675 17.04 80.5175 16.22 81.0575 15.16C81.5975 14.1 81.8675 12.87 81.8675 11.47C81.8675 10.07 81.5975 8.85 81.0575 7.81C80.5175 6.75 79.7675 5.94 78.8075 5.38C77.8475 4.82 76.7375 4.54 75.4775 4.54C74.2175 4.54 73.0975 4.82 72.1175 5.38C71.1575 5.94 70.4075 6.75 69.8675 7.81C69.3275 8.85 69.0575 10.07 69.0575 11.47C69.0575 12.87 69.3275 14.1 69.8675 15.16C70.4075 16.22 71.1575 17.04 72.1175 17.62C73.0975 18.18 74.2175 18.46 75.4775 18.46Z" fill="#FF4A00"/>
</svg>
